<svg width="50" height="50" viewBox="0 0 50 50" fill="none" xmlns="http://www.w3.org/2000/svg">
<path d="M30.2536 18.0978C28.6504 17.6822 26.4225 17.071 24.6366 17.071C15.8303 17.071 8.69141 22.5491 8.69141 29.3067C8.69141 33.1899 11.0488 36.6506 14.7252 38.8922L13.7291 42.1775C13.4892 42.9687 14.0814 43.7671 14.9082 43.7671H18.5309C18.7976 43.7671 19.0571 43.6807 19.2705 43.5205L22.1343 41.3712H27.1386L30.0025 43.5205C30.2158 43.6807 30.4754 43.7671 30.7422 43.7671H34.3648C35.1916 43.7671 35.7838 42.9687 35.5438 42.1775L34.5478 38.8922C36.7381 37.5568 38.4602 35.7885 39.4946 33.7561" stroke="#411AFF" stroke-width="1.15512" stroke-linecap="round" stroke-linejoin="round"/>
<path d="M30.2537 18.0979L39.4946 15.0176L39.3221 22.4685L43.6017 24.2585V31.4459L39.6468 33.4995" stroke="#411AFF" stroke-width="1.15512" stroke-linecap="round" stroke-linejoin="round"/>
<path d="M32.3073 27.3387C31.7403 27.3387 31.2805 26.8789 31.2805 26.3119C31.2805 25.7449 31.7403 25.2852 32.3073 25.2852C32.8743 25.2852 33.3341 25.7449 33.3341 26.3119C33.3341 26.8789 32.8743 27.3387 32.3073 27.3387Z" fill="#411AFF" stroke="#411AFF" stroke-width="1.15512" stroke-linecap="round" stroke-linejoin="round"/>
<path d="M4.58423 21.178C4.58423 21.178 4.58423 26.1065 8.69132 27.3386" stroke="#411AFF" stroke-width="1.15512" stroke-linecap="round" stroke-linejoin="round"/>
<path d="M26.7643 16.5636C27.0292 15.8004 27.1734 14.9791 27.1734 14.1235C27.1734 10.0806 23.9555 6.80322 19.986 6.80322C16.0165 6.80322 12.7986 10.0806 12.7986 14.1235C12.7986 16.0573 13.5348 17.8159 14.7372 19.1245" stroke="#411AFF" stroke-width="1.15512" stroke-linejoin="round"/>
</svg>
