<svg width="50" height="50" viewBox="0 0 50 50" fill="none" xmlns="http://www.w3.org/2000/svg">
<path d="M14.7439 39.0174C17.0122 39.0174 18.851 37.1787 18.851 34.9103C18.851 32.642 17.0122 30.8032 14.7439 30.8032C12.4756 30.8032 10.6368 32.642 10.6368 34.9103C10.6368 37.1787 12.4756 39.0174 14.7439 39.0174Z" stroke="#411AFF" stroke-width="1.15512" stroke-miterlimit="1.5" stroke-linecap="round" stroke-linejoin="round"/>
<path d="M35.2793 39.0174C37.5477 39.0174 39.3864 37.1787 39.3864 34.9103C39.3864 32.642 37.5477 30.8032 35.2793 30.8032C33.011 30.8032 31.1722 32.642 31.1722 34.9103C31.1722 37.1787 33.011 39.0174 35.2793 39.0174Z" stroke="#411AFF" stroke-width="1.15512" stroke-miterlimit="1.5" stroke-linecap="round" stroke-linejoin="round"/>
<path d="M29.1187 34.9103V13.5534C29.1187 12.8729 28.5671 12.3213 27.8866 12.3213H5.70832C5.02784 12.3213 4.4762 12.8729 4.4762 13.5534V33.6781C4.4762 34.3587 5.02784 34.9103 5.70832 34.9103H9.91809" stroke="#411AFF" stroke-width="1.15512" stroke-linecap="round"/>
<path d="M29.1187 34.9104H18.9537" stroke="#411AFF" stroke-width="1.15512" stroke-linecap="round"/>
<path d="M29.1188 18.4819H40.6394C41.1263 18.4819 41.5676 18.7687 41.7653 19.2137L45.441 27.4838C45.511 27.6416 45.5471 27.812 45.5471 27.9843V33.6782C45.5471 34.3587 44.9955 34.9103 44.315 34.9103H40.4133" stroke="#411AFF" stroke-width="1.15512" stroke-linecap="round"/>
<path d="M29.1188 34.9104H31.1723" stroke="#411AFF" stroke-width="1.15512" stroke-linecap="round"/>
</svg>
