<svg width="277" height="276" viewBox="0 0 277 276" fill="none" xmlns="http://www.w3.org/2000/svg">
<path d="M260.804 116.543C273.997 138.035 278.961 163.578 274.777 188.446C270.594 213.315 257.546 235.827 238.048 251.82C218.549 267.812 193.918 276.202 168.712 275.438C143.505 274.674 119.428 264.807 100.934 247.663C99.9336 246.783 99.0236 245.883 98.0936 244.953C86.6793 233.568 78.0662 219.686 72.9336 204.403C98.036 212.385 125.227 210.588 149.061 199.373C172.895 188.158 191.612 168.352 201.464 143.923H201.524L260.804 116.543Z" fill="#E23737"/>
<path d="M203.544 71.7336C209.685 90.0136 210.642 109.638 206.307 128.429C201.972 147.219 192.515 164.441 178.986 178.183C165.458 191.926 148.386 201.651 129.665 206.279C110.945 210.907 91.3078 210.258 72.9339 204.404C72.8139 204.064 72.7039 203.704 72.5939 203.344C66.6771 185.085 65.9096 165.549 70.3757 146.882C74.8419 128.216 84.3687 111.143 97.9088 97.5397C111.449 83.9366 128.478 74.3306 147.123 69.7777C165.768 65.2249 185.308 65.9017 203.594 71.7336H203.544Z" fill="#F88DAD"/>
<path d="M260.804 116.543C273.997 138.035 278.961 163.578 274.777 188.446C270.594 213.315 257.546 235.827 238.048 251.82C218.549 267.812 193.918 276.202 168.712 275.438C143.505 274.674 119.428 264.807 100.934 247.663C99.9336 246.783 99.0236 245.883 98.0936 244.953C86.6793 233.568 78.0662 219.686 72.9336 204.403C98.036 212.385 125.227 210.588 149.061 199.373C172.895 188.158 191.612 168.352 201.464 143.923H201.524L260.804 116.543Z" fill="#411AFF"/>
<path d="M245.654 244.953C226.57 264.047 200.826 274.998 173.835 275.504C146.844 276.009 120.709 266.029 100.924 247.663C99.9236 246.793 99.0136 245.873 98.0936 244.953C86.6773 233.57 78.0638 219.687 72.9336 204.403C73.0175 204.436 73.1047 204.459 73.1936 204.473C78.0375 213.402 84.1474 221.584 91.3336 228.763C92.2536 229.673 93.1836 230.593 94.1736 231.463C111.104 247.151 132.756 256.784 155.743 258.855C178.731 260.927 201.757 255.32 221.219 242.913C240.68 230.505 255.481 211.996 263.303 190.282C271.126 168.567 271.531 144.872 264.454 122.903C274.704 142.603 278.408 165.057 275.027 187.005C271.646 208.953 261.357 229.252 245.654 244.953Z" fill="url(#paint0_linear_1052_4759)"/>
<path d="M178.414 31.2132C189.659 42.4156 198.179 56.0535 203.314 71.0732C203.394 71.3032 203.474 71.5332 203.544 71.7632C185.359 65.9649 165.931 65.2689 147.377 69.7513C128.824 74.2336 111.856 83.7222 98.3238 97.1832L98.0938 97.4132C87.3618 108.123 79.0992 121.047 73.8838 135.283L19.8838 165.933C4.56822 144.648 -2.17308 118.378 1.00108 92.348C4.17523 66.3183 17.0322 42.4376 37.014 25.4569C56.9958 8.4762 82.6379 -0.359815 108.839 0.706802C135.039 1.77342 159.878 12.6645 178.414 31.2132Z" fill="#FFD754"/>
<path d="M200.034 63.3733C196.288 57.7847 192.005 52.5765 187.244 47.8233C170.062 30.6418 147.424 19.9941 123.233 17.7162C99.0419 15.4384 74.8141 21.6731 54.7276 35.3454C34.6411 49.0177 19.9549 69.2704 13.2015 92.6112C6.44816 115.952 8.05099 140.918 17.7336 163.203C9.64771 151.168 4.15865 137.58 1.61646 123.305C-0.925719 109.031 -0.465216 94.3831 2.9686 80.2964C6.40241 66.2097 12.7342 52.9932 21.5601 41.4897C30.386 29.9863 41.5123 20.4484 54.2295 13.4842C66.9467 6.52012 80.9757 2.28266 95.4217 1.04209C109.868 -0.198473 124.414 1.58509 138.132 6.27903C151.85 10.973 164.44 18.4743 175.098 28.3045C185.756 38.1348 194.248 50.0783 200.034 63.3733Z" fill="url(#paint1_linear_1052_4759)"/>
<defs>
<linearGradient id="paint0_linear_1052_4759" x1="72.9336" y1="199.213" x2="276.234" y2="199.213" gradientUnits="userSpaceOnUse">
<stop stop-color="#8390FA"/>
<stop offset="1" stop-color="#411AFF"/>
</linearGradient>
<linearGradient id="paint1_linear_1052_4759" x1="-0.00639163" y1="81.9233" x2="200.024" y2="81.9233" gradientUnits="userSpaceOnUse">
<stop stop-color="white"/>
<stop offset="1" stop-color="#FFD754"/>
</linearGradient>
</defs>
</svg>
