<svg width="1728" height="449" viewBox="0 0 1728 449" fill="none" xmlns="http://www.w3.org/2000/svg">
<path d="M359.77 176C372.963 197.492 377.927 223.034 373.744 247.903C369.56 272.772 356.513 295.284 337.014 311.276C317.515 327.269 292.885 335.659 267.678 334.894C242.471 334.13 218.394 324.264 199.9 307.12C198.9 306.24 197.99 305.34 197.06 304.41C185.646 293.025 177.032 279.143 171.9 263.86C197.002 271.841 224.193 270.044 248.027 258.829C271.861 247.614 290.578 227.809 300.43 203.38H300.49L359.77 176Z" fill="#E23737"/>
<path d="M302.51 131.19C308.652 149.47 309.608 169.094 305.273 187.885C300.938 206.676 291.482 223.898 277.953 237.64C264.424 251.382 247.352 261.107 228.631 265.736C209.911 270.364 190.274 269.715 171.9 263.86C171.78 263.52 171.67 263.16 171.56 262.8C165.643 244.542 164.876 225.005 169.342 206.339C173.808 187.673 183.335 170.599 196.875 156.996C210.415 143.393 227.444 133.787 246.089 129.234C264.735 124.681 284.274 125.358 302.56 131.19H302.51Z" fill="#F88DAD"/>
<path d="M359.77 176C372.963 197.492 377.927 223.034 373.744 247.903C369.56 272.772 356.513 295.284 337.014 311.276C317.515 327.269 292.885 335.659 267.678 334.894C242.471 334.13 218.394 324.264 199.9 307.12C198.9 306.24 197.99 305.34 197.06 304.41C185.646 293.025 177.032 279.143 171.9 263.86C197.002 271.841 224.193 270.044 248.027 258.829C271.861 247.614 290.578 227.809 300.43 203.38H300.49L359.77 176Z" fill="#411AFF"/>
<path d="M344.62 304.41C325.536 323.504 299.793 334.455 272.802 334.96C245.811 335.466 219.675 325.486 199.89 307.12C198.89 306.25 197.98 305.33 197.06 304.41C185.644 293.026 177.03 279.144 171.9 263.86C171.984 263.893 172.071 263.916 172.16 263.93C177.004 272.859 183.114 281.04 190.3 288.22C191.22 289.13 192.15 290.05 193.14 290.92C210.07 306.607 231.722 316.24 254.71 318.312C277.697 320.384 300.723 314.777 320.185 302.369C339.647 289.962 354.447 271.453 362.27 249.738C370.093 228.024 370.497 204.329 363.42 182.36C373.67 202.06 377.374 224.514 373.993 246.462C370.612 268.41 360.323 288.708 344.62 304.41Z" fill="url(#paint0_linear_1049_4258)"/>
<path d="M277.38 90.67C288.626 101.872 297.145 115.51 302.28 130.53C302.36 130.76 302.44 130.99 302.51 131.22C284.325 125.422 264.897 124.726 246.343 129.208C227.79 133.69 210.822 143.179 197.29 156.64L197.06 156.87C186.328 167.579 178.066 180.504 172.85 194.74L118.85 225.39C103.535 204.105 96.7932 177.834 99.9674 151.805C103.142 125.775 115.998 101.894 135.98 84.9137C155.962 67.933 181.604 59.097 207.805 60.1636C234.006 61.2302 258.845 72.1213 277.38 90.67Z" fill="#FFD754"/>
<path d="M299 122.83C295.255 117.241 290.971 112.033 286.21 107.28C269.029 90.0986 246.391 79.4509 222.199 77.173C198.008 74.8952 173.78 81.1299 153.694 94.8022C133.607 108.474 118.921 128.727 112.168 152.068C105.414 175.409 107.017 200.374 116.7 222.66C108.614 210.625 103.125 197.037 100.583 182.762C98.0406 168.488 98.5011 153.84 101.935 139.753C105.369 125.667 111.7 112.45 120.526 100.947C129.352 89.4431 140.479 79.9051 153.196 72.941C165.913 65.9769 179.942 61.7394 194.388 60.4989C208.834 59.2583 223.38 61.0419 237.098 65.7358C250.817 70.4298 263.406 77.931 274.064 87.7613C284.722 97.5916 293.215 109.535 299 122.83Z" fill="url(#paint1_linear_1049_4258)"/>
<path d="M605.246 164.726C603.466 158.956 601.008 153.792 597.874 149.233C594.811 144.603 591.107 140.65 586.762 137.373C582.488 134.096 577.573 131.639 572.017 130.001C566.461 128.291 560.406 127.436 553.853 127.436C542.1 127.436 531.629 130.392 522.44 136.305C513.251 142.217 506.021 150.907 500.75 162.375C495.551 173.772 492.951 187.662 492.951 204.045C492.951 220.571 495.551 234.568 500.75 246.036C505.95 257.504 513.18 266.23 522.44 272.213C531.7 278.126 542.456 281.082 554.708 281.082C565.82 281.082 575.436 278.945 583.557 274.671C591.748 270.397 598.052 264.342 602.468 256.507C606.885 248.6 609.093 239.34 609.093 228.727L618.068 230.116H558.661V199.13H647.451V225.415C647.451 244.148 643.462 260.353 635.484 274.03C627.506 287.706 616.536 298.248 602.575 305.656C588.614 312.993 572.587 316.662 554.494 316.662C534.336 316.662 516.635 312.138 501.391 303.092C486.219 293.975 474.359 281.046 465.812 264.307C457.335 247.496 453.097 227.552 453.097 204.473C453.097 186.807 455.59 171.03 460.576 157.14C465.633 143.25 472.685 131.461 481.732 121.773C490.778 112.015 501.391 104.607 513.572 99.5493C525.753 94.4207 539.001 91.8564 553.319 91.8564C565.428 91.8564 576.718 93.6372 587.189 97.1987C597.66 100.689 606.956 105.675 615.076 112.157C623.268 118.639 629.999 126.332 635.27 135.236C640.541 144.14 643.996 153.97 645.634 164.726H605.246ZM788.675 244.647V149.554H827.354V313.67H789.851V284.501H788.141C784.437 293.69 778.347 301.204 769.87 307.045C761.465 312.886 751.101 315.807 738.778 315.807C728.022 315.807 718.513 313.421 710.25 308.648C702.058 303.804 695.647 296.788 691.017 287.599C686.387 278.339 684.072 267.156 684.072 254.05V149.554H722.751V248.066C722.751 258.466 725.6 266.729 731.299 272.855C736.997 278.98 744.476 282.043 753.736 282.043C759.435 282.043 764.955 280.654 770.298 277.876C775.64 275.098 780.021 270.967 783.44 265.482C786.93 259.926 788.675 252.981 788.675 244.647ZM867.127 313.67V149.554H905.806V313.67H867.127ZM886.573 126.261C880.448 126.261 875.176 124.231 870.76 120.171C866.344 116.039 864.136 111.089 864.136 105.319C864.136 99.4781 866.344 94.5276 870.76 90.4674C875.176 86.336 880.448 84.2703 886.573 84.2703C892.771 84.2703 898.042 86.336 902.387 90.4674C906.803 94.5276 909.011 99.4781 909.011 105.319C909.011 111.089 906.803 116.039 902.387 120.171C898.042 124.231 892.771 126.261 886.573 126.261ZM1006.48 316.555C993.589 316.555 982.05 313.243 971.864 306.618C961.678 299.994 953.629 290.377 947.716 277.769C941.804 265.162 938.848 249.847 938.848 231.825C938.848 213.59 941.84 198.204 947.823 185.668C953.878 173.06 962.034 163.55 972.291 157.14C982.548 150.658 993.981 147.417 1006.59 147.417C1016.21 147.417 1024.11 149.055 1030.31 152.332C1036.51 155.537 1041.42 159.419 1045.05 163.978C1048.69 168.465 1051.5 172.704 1053.49 176.693H1055.1V94.8481H1093.88V313.67H1055.85V287.813H1053.49C1051.5 291.802 1048.62 296.04 1044.84 300.528C1041.06 304.944 1036.08 308.719 1029.88 311.854C1023.68 314.988 1015.88 316.555 1006.48 316.555ZM1017.27 284.821C1025.47 284.821 1032.45 282.613 1038.22 278.197C1043.99 273.709 1048.37 267.477 1051.36 259.499C1054.35 251.521 1055.85 242.225 1055.85 231.612C1055.85 220.998 1054.35 211.774 1051.36 203.938C1048.44 196.103 1044.09 190.013 1038.32 185.668C1032.62 181.323 1025.61 179.15 1017.27 179.15C1008.65 179.15 1001.46 181.394 995.691 185.881C989.921 190.369 985.576 196.566 982.655 204.473C979.735 212.379 978.275 221.426 978.275 231.612C978.275 241.869 979.735 251.022 982.655 259.071C985.647 267.049 990.028 273.353 995.797 277.983C1001.64 282.542 1008.8 284.821 1017.27 284.821ZM1173.78 94.8481V313.67H1135.1V94.8481H1173.78ZM1213.55 313.67V149.554H1252.23V313.67H1213.55ZM1233 126.261C1226.87 126.261 1221.6 124.231 1217.18 120.171C1212.77 116.039 1210.56 111.089 1210.56 105.319C1210.56 99.4781 1212.77 94.5276 1217.18 90.4674C1221.6 86.336 1226.87 84.2703 1233 84.2703C1239.19 84.2703 1244.46 86.336 1248.81 90.4674C1253.23 94.5276 1255.43 99.4781 1255.43 105.319C1255.43 111.089 1253.23 116.039 1248.81 120.171C1244.46 124.231 1239.19 126.261 1233 126.261ZM1375.13 149.554V179.471H1278.11V149.554H1375.13ZM1302.37 313.67V134.061C1302.37 123.02 1304.65 113.831 1309.21 106.494C1313.84 99.1576 1320.03 93.6728 1327.8 90.04C1335.56 86.4072 1344.18 84.5908 1353.65 84.5908C1360.35 84.5908 1366.3 85.125 1371.5 86.1935C1376.7 87.262 1380.54 88.2236 1383.04 89.0784L1375.34 118.995C1373.7 118.497 1371.64 117.998 1369.15 117.5C1366.65 116.93 1363.88 116.645 1360.81 116.645C1353.62 116.645 1348.52 118.39 1345.53 121.88C1342.61 125.299 1341.15 130.214 1341.15 136.625V313.67H1302.37ZM1429.46 375.214C1424.19 375.214 1419.31 374.786 1414.82 373.931C1410.41 373.148 1406.88 372.222 1404.25 371.153L1413.22 341.023C1418.85 342.661 1423.87 343.445 1428.29 343.373C1432.7 343.302 1436.58 341.913 1439.93 339.206C1443.35 336.571 1446.24 332.154 1448.59 325.957L1451.9 317.089L1392.39 149.554H1433.41L1471.24 273.496H1472.95L1510.88 149.554H1552.01L1486.3 333.543C1483.24 342.234 1479.18 349.677 1474.12 355.874C1469.07 362.143 1462.87 366.915 1455.53 370.192C1448.27 373.54 1439.58 375.214 1429.46 375.214Z" fill="#1A1919"/>
<defs>
<linearGradient id="paint0_linear_1049_4258" x1="171.9" y1="258.67" x2="375.2" y2="258.67" gradientUnits="userSpaceOnUse">
<stop stop-color="#8390FA"/>
<stop offset="1" stop-color="#411AFF"/>
</linearGradient>
<linearGradient id="paint1_linear_1049_4258" x1="98.9599" y1="141.38" x2="298.99" y2="141.38" gradientUnits="userSpaceOnUse">
<stop stop-color="white"/>
<stop offset="1" stop-color="#FFD754"/>
</linearGradient>
</defs>
</svg>
