<svg width="134" height="32" viewBox="0 0 134 32" fill="none" xmlns="http://www.w3.org/2000/svg">
<path d="M21.0001 8.53122L18.5001 8.53122C18.3031 8.53122 18.108 8.57003 17.926 8.64541C17.7441 8.72078 17.5787 8.83125 17.4393 8.97052C17.3001 9.1099 17.1896 9.27527 17.1142 9.45718C17.0388 9.63919 17 9.83426 17 10.0312L17 15.5313C16.5 17.5308 16.4065 18.1247 15 19.5313C13.5935 20.9378 12.4892 22.0312 10.5 22.0313C9.51511 22.0313 8.90995 21.9082 8 21.5312C7.09004 21.1543 6.19645 20.2277 5.5 19.5313C4.80356 18.8348 4.87691 18.9412 4.5 18.0312C4.12309 17.1213 4.00003 16.5162 4.00004 15.5312L4.00004 10.0317C4.0001 9.83471 3.96134 9.63953 3.88599 9.45751C3.81063 9.2755 3.70015 9.11002 3.56086 8.97074C3.42155 8.83136 3.25617 8.72089 3.07415 8.64541C2.89214 8.57003 2.69705 8.53122 2.50002 8.53122L-7.43095e-07 8.53122L-4.15255e-07 15.0313C-3.55061e-07 16.4102 0.271592 17.7756 0.799269 19.0495C1.32695 20.3234 2.10038 21.4809 3.07539 22.4559C4.05042 23.4309 5.20793 24.2044 6.48186 24.732C7.75578 25.2597 9.12116 25.5313 10.5 25.5312C13.2848 25.5312 15.9555 24.425 17.9247 22.4559C19.8938 20.4868 21.0001 17.8161 21.0001 15.0313L21.0001 8.53122Z" fill="#1D2F6F"/>
<circle cx="4.5" cy="7.96875" r="4.5" fill="#1A1919"/>
<path d="M43.0625 13.1094V22.125C42.7083 22.5521 42.1615 23.0156 41.4219 23.5156C40.6823 24.0052 39.7292 24.4271 38.5625 24.7812C37.3958 25.1354 35.9844 25.3125 34.3281 25.3125C32.8594 25.3125 31.5208 25.0729 30.3125 24.5938C29.1042 24.1042 28.0625 23.3906 27.1875 22.4531C26.3229 21.5156 25.6562 20.3698 25.1875 19.0156C24.7188 17.651 24.4844 16.0938 24.4844 14.3438V12.9219C24.4844 11.1719 24.7083 9.61458 25.1562 8.25C25.6146 6.88542 26.2656 5.73438 27.1094 4.79688C27.9531 3.85938 28.9583 3.14583 30.125 2.65625C31.2917 2.16667 32.5885 1.92188 34.0156 1.92188C35.9948 1.92188 37.6198 2.24479 38.8906 2.89062C40.1615 3.52604 41.1302 4.41146 41.7969 5.54688C42.474 6.67188 42.8906 7.96354 43.0469 9.42188H38.5C38.3854 8.65104 38.1667 7.97917 37.8438 7.40625C37.5208 6.83333 37.0573 6.38542 36.4531 6.0625C35.8594 5.73958 35.0885 5.57812 34.1406 5.57812C33.3594 5.57812 32.6615 5.73958 32.0469 6.0625C31.4427 6.375 30.9323 6.83854 30.5156 7.45312C30.099 8.06771 29.7812 8.82812 29.5625 9.73438C29.3438 10.6406 29.2344 11.6927 29.2344 12.8906V14.3438C29.2344 15.5312 29.349 16.5833 29.5781 17.5C29.8073 18.4062 30.1458 19.1719 30.5938 19.7969C31.0521 20.4115 31.6146 20.875 32.2812 21.1875C32.9479 21.5 33.724 21.6562 34.6094 21.6562C35.349 21.6562 35.9635 21.5938 36.4531 21.4688C36.9531 21.3438 37.3542 21.1927 37.6562 21.0156C37.9688 20.8281 38.2083 20.651 38.375 20.4844V16.4531H34.0938V13.1094H43.0625ZM56.5625 20.9531V8.09375H61.0625V25H56.8281L56.5625 20.9531ZM57.0625 17.4844L58.3906 17.4531C58.3906 18.5781 58.2604 19.625 58 20.5938C57.7396 21.5521 57.349 22.3854 56.8281 23.0938C56.3073 23.7917 55.651 24.3385 54.8594 24.7344C54.0677 25.1198 53.1354 25.3125 52.0625 25.3125C51.2396 25.3125 50.4792 25.1979 49.7812 24.9688C49.0938 24.7292 48.5 24.3594 48 23.8594C47.5104 23.349 47.125 22.6979 46.8438 21.9062C46.5729 21.1042 46.4375 20.1406 46.4375 19.0156V8.09375H50.9375V19.0469C50.9375 19.5469 50.9948 19.9688 51.1094 20.3125C51.2344 20.6562 51.4062 20.9375 51.625 21.1562C51.8438 21.375 52.099 21.5312 52.3906 21.625C52.6927 21.7188 53.026 21.7656 53.3906 21.7656C54.3177 21.7656 55.0469 21.5781 55.5781 21.2031C56.1198 20.8281 56.5 20.3177 56.7188 19.6719C56.9479 19.0156 57.0625 18.2865 57.0625 17.4844ZM69.25 8.09375V25H64.7344V8.09375H69.25ZM64.4531 3.6875C64.4531 3.03125 64.6823 2.48958 65.1406 2.0625C65.599 1.63542 66.2135 1.42188 66.9844 1.42188C67.7448 1.42188 68.3542 1.63542 68.8125 2.0625C69.2812 2.48958 69.5156 3.03125 69.5156 3.6875C69.5156 4.34375 69.2812 4.88542 68.8125 5.3125C68.3542 5.73958 67.7448 5.95312 66.9844 5.95312C66.2135 5.95312 65.599 5.73958 65.1406 5.3125C64.6823 4.88542 64.4531 4.34375 64.4531 3.6875ZM82.9531 21.3125V1H87.4844V25H83.4062L82.9531 21.3125ZM72.2656 16.75V16.4219C72.2656 15.1302 72.4115 13.9583 72.7031 12.9062C72.9948 11.8438 73.4219 10.9323 73.9844 10.1719C74.5469 9.41146 75.2396 8.82292 76.0625 8.40625C76.8854 7.98958 77.8229 7.78125 78.875 7.78125C79.8646 7.78125 80.7292 7.98958 81.4688 8.40625C82.2188 8.82292 82.8542 9.41667 83.375 10.1875C83.9062 10.9479 84.3333 11.849 84.6562 12.8906C84.9792 13.9219 85.2135 15.0521 85.3594 16.2812V17C85.2135 18.1771 84.9792 19.2708 84.6562 20.2812C84.3333 21.2917 83.9062 22.1771 83.375 22.9375C82.8542 23.6875 82.2188 24.2708 81.4688 24.6875C80.7188 25.1042 79.8438 25.3125 78.8438 25.3125C77.7917 25.3125 76.8542 25.099 76.0312 24.6719C75.2188 24.2448 74.5312 23.6458 73.9688 22.875C73.4167 22.1042 72.9948 21.1979 72.7031 20.1562C72.4115 19.1146 72.2656 17.9792 72.2656 16.75ZM76.7656 16.4219V16.75C76.7656 17.4479 76.8177 18.099 76.9219 18.7031C77.0365 19.3073 77.2188 19.8438 77.4688 20.3125C77.7292 20.7708 78.0625 21.1302 78.4688 21.3906C78.8854 21.6406 79.3906 21.7656 79.9844 21.7656C80.7552 21.7656 81.3906 21.5938 81.8906 21.25C82.3906 20.8958 82.7708 20.4115 83.0312 19.7969C83.3021 19.1823 83.4583 18.474 83.5 17.6719V15.625C83.4688 14.9688 83.375 14.3802 83.2188 13.8594C83.0729 13.3281 82.8542 12.875 82.5625 12.5C82.2812 12.125 81.9271 11.8333 81.5 11.625C81.0833 11.4167 80.5885 11.3125 80.0156 11.3125C79.4323 11.3125 78.9323 11.4479 78.5156 11.7188C78.099 11.9792 77.7604 12.3385 77.5 12.7969C77.25 13.2552 77.0625 13.7969 76.9375 14.4219C76.8229 15.0365 76.7656 15.7031 76.7656 16.4219ZM95.75 1V25H91.2344V1H95.75ZM104.219 8.09375V25H99.7031V8.09375H104.219ZM99.4219 3.6875C99.4219 3.03125 99.651 2.48958 100.109 2.0625C100.568 1.63542 101.182 1.42188 101.953 1.42188C102.714 1.42188 103.323 1.63542 103.781 2.0625C104.25 2.48958 104.484 3.03125 104.484 3.6875C104.484 4.34375 104.25 4.88542 103.781 5.3125C103.323 5.73958 102.714 5.95312 101.953 5.95312C101.182 5.95312 100.568 5.73958 100.109 5.3125C99.651 4.88542 99.4219 4.34375 99.4219 3.6875ZM113.672 25H109.141V6.59375C109.141 5.3125 109.391 4.23438 109.891 3.35938C110.401 2.47396 111.115 1.80729 112.031 1.35938C112.958 0.901042 114.057 0.671875 115.328 0.671875C115.745 0.671875 116.146 0.703125 116.531 0.765625C116.917 0.817708 117.292 0.885417 117.656 0.96875L117.609 4.35938C117.411 4.30729 117.203 4.27083 116.984 4.25C116.766 4.22917 116.51 4.21875 116.219 4.21875C115.677 4.21875 115.214 4.3125 114.828 4.5C114.453 4.67708 114.167 4.94271 113.969 5.29688C113.771 5.65104 113.672 6.08333 113.672 6.59375V25ZM117.047 8.09375V11.2812H106.625V8.09375H117.047ZM124.422 23.0938L128.906 8.09375H133.734L126.938 27.5469C126.792 27.974 126.594 28.4323 126.344 28.9219C126.104 29.4115 125.776 29.875 125.359 30.3125C124.953 30.7604 124.438 31.125 123.812 31.4062C123.198 31.6875 122.443 31.8281 121.547 31.8281C121.12 31.8281 120.771 31.8021 120.5 31.75C120.229 31.6979 119.906 31.625 119.531 31.5312V28.2344C119.646 28.2344 119.766 28.2344 119.891 28.2344C120.016 28.2448 120.135 28.25 120.25 28.25C120.844 28.25 121.328 28.1823 121.703 28.0469C122.078 27.9115 122.38 27.7031 122.609 27.4219C122.839 27.151 123.021 26.7969 123.156 26.3594L124.422 23.0938ZM122.547 8.09375L126.219 20.3438L126.859 25.1094L123.797 25.4375L117.719 8.09375H122.547Z" fill="#1A1919"/>
</svg>
